<svg width="41" height="40" viewBox="0 0 41 40" fill="none" xmlns="http://www.w3.org/2000/svg">
<g clip-path="url(#clip0_25_41)">
<path fill-rule="evenodd" clip-rule="evenodd" d="M1.0003 38.9739C0.868295 38.9739 0.740295 38.923 0.645295 38.829C0.520295 38.7047 0.471295 38.5235 0.518295 38.3561L3.1573 28.9208C1.5213 26.0754 0.658295 22.8441 0.660295 19.5639C0.664295 9.0457 9.4053 0.489746 20.1463 0.489746C25.3563 0.491704 30.2513 2.47843 33.9303 6.08373C37.6093 9.69 39.6343 14.482 39.6323 19.5776C39.6283 30.0948 30.8863 38.6518 20.1463 38.6518C16.9573 38.6508 13.8023 37.8802 11.0023 36.4222L1.1273 38.9573C1.0853 38.969 1.0433 38.9739 1.0003 38.9739Z" fill="white"/>
<path fill-rule="evenodd" clip-rule="evenodd" d="M20.1464 0.979167C25.2254 0.981125 29.9914 2.91694 33.5764 6.42921C37.1604 9.94246 39.1344 14.6111 39.1324 19.5775C39.1284 29.8244 30.6104 38.162 20.1464 38.162H20.1384C16.9614 38.1611 13.8384 37.3807 11.0654 35.8992L1.00041 38.4842L3.69441 28.8541C2.03241 26.036 1.15841 22.8381 1.15941 19.5628C1.16441 9.31579 9.68041 0.979167 20.1464 0.979167ZM20.1464 0C9.13041 0 0.164411 8.77529 0.159411 19.5628C0.158411 22.8596 1.00841 26.1085 2.62041 28.9843L0.0354115 38.2267C-0.0585885 38.5645 0.0374114 38.9248 0.289411 39.1735C0.479411 39.3615 0.736411 39.4643 1.00041 39.4643C1.08541 39.4643 1.17041 39.4536 1.25441 39.432L10.9414 36.9449C13.7694 38.3824 16.9394 39.1412 20.1384 39.1422C31.1624 39.1422 40.1284 30.3659 40.1334 19.5784C40.1354 14.3507 38.0584 9.43525 34.2854 5.73792C30.5104 2.0396 25.4894 0.00195833 20.1464 0Z" fill="#CFD8DC"/>
<path fill-rule="evenodd" clip-rule="evenodd" d="M31.3083 8.64828C28.3283 5.7284 24.3673 4.11963 20.1513 4.11865C11.4473 4.11865 4.36826 11.0472 4.36426 19.564C4.36326 22.4829 5.19726 25.3245 6.77726 27.7851L7.15326 28.3697L5.55826 34.0694L11.5313 32.536L12.1083 32.8709C14.5303 34.2789 17.3083 35.0231 20.1403 35.0241H20.1463C28.8443 35.0241 35.9233 28.0945 35.9263 19.5768C35.9273 15.4496 34.2883 11.5682 31.3083 8.64828Z" fill="#40C351"/>
<path fill-rule="evenodd" clip-rule="evenodd" d="M15.4003 11.7942C15.0453 11.0206 14.6713 11.005 14.3323 10.9913C14.0553 10.9795 13.7393 10.9805 13.4233 10.9805C13.1073 10.9805 12.5933 11.097 12.1583 11.5621C11.7233 12.0272 10.4973 13.1503 10.4973 15.4357C10.4973 17.7211 12.1973 19.9301 12.4343 20.2395C12.6713 20.5489 15.7163 25.3889 20.5383 27.2513C24.5453 28.7984 25.3613 28.4909 26.2313 28.4136C27.1013 28.3362 29.0383 27.2905 29.4333 26.2056C29.8283 25.1206 29.8283 24.1914 29.7103 23.9975C29.5913 23.8037 29.2753 23.6881 28.8013 23.4551C28.3273 23.222 25.9943 22.0989 25.5593 21.9442C25.1243 21.7895 24.8083 21.7122 24.4913 22.1773C24.1753 22.6414 23.2663 23.6881 22.9893 23.9975C22.7123 24.3079 22.4353 24.3471 21.9613 24.1141C21.4873 23.881 19.9593 23.3914 18.1463 21.8091C16.7363 20.5783 15.7843 19.0576 15.5073 18.5925C15.2303 18.1284 15.4773 17.8768 15.7153 17.6447C15.9283 17.4361 16.1893 17.1022 16.4273 16.831C16.6643 16.5598 16.7433 16.3659 16.9013 16.0565C17.0593 15.7461 16.9803 15.4749 16.8613 15.2428C16.7443 15.0098 15.8223 12.7126 15.4003 11.7942Z" fill="white"/>
</g>
<defs>
<clipPath id="clip0_25_41">
<rect width="41" height="40" fill="white"/>
</clipPath>
</defs>
</svg>
