<?xml version="1.0" encoding="UTF-8"?>
<svg version="1.1" xmlns="http://www.w3.org/2000/svg" width="2516" height="1210">
<path d="M0 0 C36.11921607 -0.07697695 72.23843848 -0.15078364 108.35766602 -0.22216797 C109.41787045 -0.22426372 109.41787045 -0.22426372 110.49949316 -0.22640181 C186.23814881 -0.37603142 261.97680653 -0.50515283 337.71556091 -0.59280396 C339.3980343 -0.59475626 341.08050769 -0.59670858 342.76298108 -0.59866092 C378.07899864 -0.63957904 413.39501883 -0.677613 448.71104303 -0.71231549 C466.4516072 -0.72975094 484.19217078 -0.74774056 501.93273387 -0.76625418 C504.60882099 -0.76904366 507.28490813 -0.77181732 509.96099527 -0.77459032 C551.16609736 -0.8174271 592.37114156 -0.87214473 633.57617188 -0.96130371 C634.4620309 -0.96322029 635.34788992 -0.96513688 636.26059315 -0.96711154 C650.54314798 -0.99808451 664.82570058 -1.03005513 679.1082529 -1.06215817 C720.24939552 -1.15461632 761.39049357 -1.23969013 802.5317297 -1.27595711 C803.37787618 -1.2767066 804.22402267 -1.27745609 805.09580995 -1.27822829 C823.67137694 -1.29454949 842.24694447 -1.30707721 860.82251641 -1.31601376 C868.29685361 -1.31967643 875.77119047 -1.32388512 883.24552727 -1.3282814 C884.06355767 -1.32874938 884.88158807 -1.32921736 885.72440728 -1.32969952 C912.07571069 -1.3450462 938.42668315 -1.40482866 964.77785302 -1.48795092 C991.3254734 -1.57148925 1017.87277274 -1.61138088 1044.42052787 -1.59073583 C1048.09051073 -1.58789277 1051.76049375 -1.58554939 1055.43047714 -1.58350754 C1056.14988795 -1.58308921 1056.86929877 -1.58267088 1057.61050991 -1.58223988 C1068.99469697 -1.57691405 1080.37820401 -1.61866302 1091.76220584 -1.68013807 C1102.96105712 -1.73964307 1114.15903903 -1.74794138 1125.35805093 -1.70564539 C1131.34760239 -1.6844811 1137.33488507 -1.68551193 1143.32419438 -1.74836455 C1148.77715685 -1.80515404 1154.22608799 -1.79707258 1159.67899065 -1.73795966 C1161.63565945 -1.72798694 1163.5926272 -1.74133323 1165.54891333 -1.78129343 C1175.13533124 -1.96464418 1182.11154347 -1.5989939 1189.53135283 4.94848164 C1191.99138261 7.34843697 1194.31842727 9.83223788 1196.58267283 12.41702483 C1198.31293609 14.34951003 1200.19366244 16.03147966 1202.1875 17.6875 C1206.01262915 20.9815917 1209.72379036 24.3958065 1213.43823242 27.81323242 C1216.60833578 30.72833296 1219.7942046 33.62406136 1223 36.5 C1227.20684327 40.27537217 1231.37674853 44.08980448 1235.5390625 47.9140625 C1238.67667086 50.79422607 1241.83020941 53.65531614 1245 56.5 C1248.6883049 59.81001722 1252.35065765 63.147145 1256 66.5 C1261.30121923 71.36943045 1266.64104811 76.19423024 1272 81 C1277.87754442 86.27083016 1283.72499827 91.57231672 1289.53857422 96.91357422 C1292.67631113 99.79393829 1295.83003818 102.65516247 1299 105.5 C1303.20684327 109.27537217 1307.37674853 113.08980448 1311.5390625 116.9140625 C1315.47829571 120.53007657 1319.4494338 124.10897759 1323.4296875 127.6796875 C1326.34428447 130.31079783 1329.23539224 132.96652475 1332.125 135.625 C1335.36213091 138.6022264 1338.61137856 141.55952966 1341.9375 144.4375 C1346.069109 148.01937309 1350.06929927 151.73837958 1354.07958984 155.45458984 C1358.17693929 159.24887039 1362.31410773 162.99546447 1366.47265625 166.72265625 C1369.33082203 169.29809775 1372.16710261 171.89685764 1375 174.5 C1378.64927171 177.85293117 1382.31169598 181.18998357 1386 184.5 C1389.6883049 187.81001722 1393.35065765 191.147145 1397 194.5 C1402.30121923 199.36943045 1407.64104811 204.19423024 1413 209 C1418.87754442 214.27083016 1424.72499827 219.57231672 1430.53857422 224.91357422 C1433.67631113 227.79393829 1436.83003818 230.65516247 1440 233.5 C1444.20684327 237.27537217 1448.37674853 241.08980448 1452.5390625 244.9140625 C1456.47829571 248.53007657 1460.4494338 252.10897759 1464.4296875 255.6796875 C1467.34428447 258.31079783 1470.23539224 260.96652475 1473.125 263.625 C1476.36213091 266.6022264 1479.61137856 269.55952966 1482.9375 272.4375 C1487.069109 276.01937309 1491.06929927 279.73837958 1495.07958984 283.45458984 C1499.17693929 287.24887039 1503.31410773 290.99546447 1507.47265625 294.72265625 C1510.33082203 297.29809775 1513.16710261 299.89685764 1516 302.5 C1519.64927171 305.85293117 1523.31169598 309.18998357 1527 312.5 C1530.6883049 315.81001722 1534.35065765 319.147145 1538 322.5 C1543.30121923 327.36943045 1548.64104811 332.19423024 1554 337 C1559.87754442 342.27083016 1565.72499827 347.57231672 1571.53857422 352.91357422 C1574.67631113 355.79393829 1577.83003818 358.65516247 1581 361.5 C1585.20684327 365.27537217 1589.37674853 369.08980448 1593.5390625 372.9140625 C1597.47829571 376.53007657 1601.4494338 380.10897759 1605.4296875 383.6796875 C1608.34428447 386.31079783 1611.23539224 388.96652475 1614.125 391.625 C1617.36213091 394.6022264 1620.61137856 397.55952966 1623.9375 400.4375 C1628.069109 404.01937309 1632.06929927 407.73837958 1636.07958984 411.45458984 C1640.17693929 415.24887039 1644.31410773 418.99546447 1648.47265625 422.72265625 C1651.33082203 425.29809775 1654.16710261 427.89685764 1657 430.5 C1660.64927171 433.85293117 1664.31169598 437.18998357 1668 440.5 C1671.6883049 443.81001722 1675.35065765 447.147145 1679 450.5 C1684.30121923 455.36943045 1689.64104811 460.19423024 1695 465 C1700.87754442 470.27083016 1706.72499827 475.57231672 1712.53857422 480.91357422 C1715.67631113 483.79393829 1718.83003818 486.65516247 1722 489.5 C1726.20684327 493.27537217 1730.37674853 497.08980448 1734.5390625 500.9140625 C1738.47829571 504.53007657 1742.4494338 508.10897759 1746.4296875 511.6796875 C1749.34428447 514.31079783 1752.23539224 516.96652475 1755.125 519.625 C1758.36213091 522.6022264 1761.61137856 525.55952966 1764.9375 528.4375 C1769.069109 532.01937309 1773.06929927 535.73837958 1777.07958984 539.45458984 C1781.17693929 543.24887039 1785.31410773 546.99546447 1789.47265625 550.72265625 C1792.33082203 553.29809775 1795.16710261 555.89685764 1798 558.5 C1801.64927171 561.85293117 1805.31169598 565.18998357 1809 568.5 C1812.6883049 571.81001722 1816.35065765 575.147145 1820 578.5 C1825.30121923 583.36943045 1830.64104811 588.19423024 1836 593 C1841.35895525 597.80577277 1846.69853941 602.63082924 1852 607.5 C1855.80241155 610.9903688 1859.61031196 614.47426446 1863.4375 617.9375 C1864.19933594 618.62714844 1864.96117187 619.31679688 1865.74609375 620.02734375 C1868.10802757 622.09454753 1870.5439358 624.04617971 1873 626 C1873.7778551 589.16500273 1874.16243719 552.34783246 1874.20057149 515.50462973 C1874.20757 509.20708421 1874.21997634 502.90954757 1874.23167671 496.6120094 C1874.25523346 483.85816527 1874.2748072 471.1043184 1874.29173279 458.35046387 C1874.31463174 441.10570404 1874.34334077 423.86096166 1874.3729248 406.61621094 C1874.4410582 365.24414847 1874.50131157 323.87207332 1874.5625 282.5 C1874.706875 189.935 1874.85125 97.37 1875 2 C2086.53 2 2298.06 2 2516 2 C2516 399.98 2516 797.96 2516 1208 C2511.98724916 1206.99681229 2511.35701623 1206.69715834 2508.75 1203.875 C2506.35563714 1201.37433351 2503.93675434 1199.00871371 2501.3125 1196.75 C2497.81285787 1193.73283281 2494.39742911 1190.63120277 2491 1187.5 C2487.69986653 1184.46095466 2484.3905024 1181.43843541 2481 1178.5 C2477.12182987 1175.13677362 2473.34472189 1171.66664329 2469.56689453 1168.19189453 C2464.74415109 1163.75776372 2459.8765888 1159.3748176 2455 1155 C2453.33307353 1153.50028872 2451.66640851 1152.00028679 2450 1150.5 C2449.175 1149.7575 2448.35 1149.015 2447.5 1148.25 C2400 1105.5 2400 1105.5 2397.4921875 1103.2421875 C2395.85260121 1101.76707382 2394.21200345 1100.29308348 2392.5703125 1098.8203125 C2387.9796939 1094.69902232 2383.41552893 1090.55126212 2378.875 1086.375 C2375.00632178 1082.81746901 2371.09665875 1079.31710425 2367.125 1075.875 C2363.84568857 1072.98148991 2360.63893288 1070.00911641 2357.421875 1067.046875 C2354.64505943 1064.49444857 2351.85019283 1061.97016712 2349 1059.5 C2345.0691075 1056.0932265 2341.24803427 1052.56997215 2337.421875 1049.046875 C2334.64505943 1046.49444857 2331.85019283 1043.97016712 2329 1041.5 C2325.0691075 1038.0932265 2321.24803427 1034.56997215 2317.421875 1031.046875 C2314.64505943 1028.49444857 2311.85019283 1025.97016712 2309 1023.5 C2305.12182987 1020.13677362 2301.34472189 1016.66664329 2297.56689453 1013.19189453 C2292.74415109 1008.75776372 2287.8765888 1004.3748176 2283 1000 C2281.33307353 998.50028872 2279.66640851 997.00028679 2278 995.5 C2277.175 994.7575 2276.35 994.015 2275.5 993.25 C2218 941.5 2218 941.5 2215.4921875 939.2421875 C2213.85260121 937.76707382 2212.21200345 936.29308348 2210.5703125 934.8203125 C2205.9796939 930.69902232 2201.41552893 926.55126212 2196.875 922.375 C2193.00632178 918.81746901 2189.09665875 915.31710425 2185.125 911.875 C2181.84568857 908.98148991 2178.63893288 906.00911641 2175.421875 903.046875 C2172.64505943 900.49444857 2169.85019283 897.97016712 2167 895.5 C2163.0691075 892.0932265 2159.24803427 888.56997215 2155.421875 885.046875 C2152.64505943 882.49444857 2149.85019283 879.97016712 2147 877.5 C2143.0691075 874.0932265 2139.24803427 870.56997215 2135.421875 867.046875 C2132.64505943 864.49444857 2129.85019283 861.97016712 2127 859.5 C2123.12182987 856.13677362 2119.34472189 852.66664329 2115.56689453 849.19189453 C2110.74415109 844.75776372 2105.8765888 840.3748176 2101 836 C2099.33307353 834.50028872 2097.66640851 833.00028679 2096 831.5 C2095.175 830.7575 2094.35 830.015 2093.5 829.25 C2046 786.5 2046 786.5 2043.4921875 784.2421875 C2041.85260121 782.76707382 2040.21200345 781.29308348 2038.5703125 779.8203125 C2033.9796939 775.69902232 2029.41552893 771.55126212 2024.875 767.375 C2021.00632178 763.81746901 2017.09665875 760.31710425 2013.125 756.875 C2009.84568857 753.98148991 2006.63893288 751.00911641 2003.421875 748.046875 C2000.64505943 745.49444857 1997.85019283 742.97016712 1995 740.5 C1991.0691075 737.0932265 1987.24803427 733.56997215 1983.421875 730.046875 C1980.64505943 727.49444857 1977.85019283 724.97016712 1975 722.5 C1971.0691075 719.0932265 1967.24803427 715.56997215 1963.421875 712.046875 C1960.64505943 709.49444857 1957.85019283 706.97016712 1955 704.5 C1951.12182987 701.13677362 1947.34472189 697.66664329 1943.56689453 694.19189453 C1938.74415109 689.75776372 1933.8765888 685.3748176 1929 681 C1927.33307353 679.50028872 1925.66640851 678.00028679 1924 676.5 C1923.175 675.7575 1922.35 675.015 1921.5 674.25 C1912.33333333 666 1903.16666667 657.75 1894 649.5 C1893.18402344 648.76652344 1892.36804687 648.03304687 1891.52734375 647.27734375 C1889.76593984 645.69017454 1888.00841847 644.09869047 1886.25390625 642.50390625 C1884.92166016 641.29541016 1884.92166016 641.29541016 1883.5625 640.0625 C1882.75941406 639.33160156 1881.95632813 638.60070312 1881.12890625 637.84765625 C1878.93707035 635.86672419 1878.93707035 635.86672419 1876 634 C1875.67 824.08 1875.34 1014.16 1875 1210 C1742.835 1210.2165625 1742.835 1210.2165625 1608 1210.4375 C1580.14207031 1210.50122803 1552.28414062 1210.56495605 1523.58203125 1210.63061523 C1489.65820313 1210.66223145 1489.65820313 1210.66223145 1473.79516602 1210.66810608 C1461.94304581 1210.6750795 1450.09122716 1210.70530348 1438.23919217 1210.74671399 C1426.15761257 1210.78835689 1414.07620911 1210.80386299 1401.99456042 1210.79411465 C1395.43534476 1210.78952546 1388.87655253 1210.79671649 1382.31742287 1210.83450592 C1376.39003328 1210.86844907 1370.46354578 1210.87034461 1364.53611565 1210.84630775 C1362.3896927 1210.84333081 1360.24321428 1210.85228347 1358.09690094 1210.87417805 C1355.17672335 1210.90222394 1352.25980235 1210.88717014 1349.3396759 1210.8613348 C1348.08365774 1210.88891856 1348.08365774 1210.88891856 1346.80226547 1210.91705957 C1339.94363434 1210.7795834 1336.65306353 1207.79277945 1332 1203 C1330.96431057 1202.04555626 1329.92303663 1201.09711911 1328.875 1200.15625 C1327.92625 1199.2796875 1326.9775 1198.403125 1326 1197.5 C1322.70047223 1194.46031004 1319.39048393 1191.43841941 1316 1188.5 C1312.0691075 1185.0932265 1308.24803427 1181.56997215 1304.421875 1178.046875 C1301.64505943 1175.49444857 1298.85019283 1172.97016712 1296 1170.5 C1292.12182987 1167.13677362 1288.34472189 1163.66664329 1284.56689453 1160.19189453 C1279.74415109 1155.75776372 1274.8765888 1151.3748176 1270 1147 C1268.33307353 1145.50028872 1266.66640851 1144.00028679 1265 1142.5 C1264.175 1141.7575 1263.35 1141.015 1262.5 1140.25 C1245 1124.5 1245 1124.5 1242.4921875 1122.2421875 C1240.85260121 1120.76707382 1239.21200345 1119.29308348 1237.5703125 1117.8203125 C1232.9796939 1113.69902232 1228.41552893 1109.55126212 1223.875 1105.375 C1220.00632178 1101.81746901 1216.09665875 1098.31710425 1212.125 1094.875 C1208.84568857 1091.98148991 1205.63893288 1089.00911641 1202.421875 1086.046875 C1199.64505943 1083.49444857 1196.85019283 1080.97016712 1194 1078.5 C1190.12182987 1075.13677362 1186.34472189 1071.66664329 1182.56689453 1068.19189453 C1177.74415109 1063.75776372 1172.8765888 1059.3748176 1168 1055 C1166.33307353 1053.50028872 1164.66640851 1052.00028679 1163 1050.5 C1162.175 1049.7575 1161.35 1049.015 1160.5 1048.25 C1133 1023.5 1133 1023.5 1130.4921875 1021.2421875 C1128.85260121 1019.76707382 1127.21200345 1018.29308348 1125.5703125 1016.8203125 C1120.9796939 1012.69902232 1116.41552893 1008.55126212 1111.875 1004.375 C1108.00632178 1000.81746901 1104.09665875 997.31710425 1100.125 993.875 C1096.84568857 990.98148991 1093.63893288 988.00911641 1090.421875 985.046875 C1087.64505943 982.49444857 1084.85019283 979.97016712 1082 977.5 C1078.12182987 974.13677362 1074.34472189 970.66664329 1070.56689453 967.19189453 C1065.74415109 962.75776372 1060.8765888 958.3748176 1056 954 C1054.33307353 952.50028872 1052.66640851 951.00028679 1051 949.5 C1050.175 948.7575 1049.35 948.015 1048.5 947.25 C1031 931.5 1031 931.5 1028.4921875 929.2421875 C1026.85260121 927.76707382 1025.21200345 926.29308348 1023.5703125 924.8203125 C1018.9796939 920.69902232 1014.41552893 916.55126212 1009.875 912.375 C1006.00632178 908.81746901 1002.09665875 905.31710425 998.125 901.875 C994.84568857 898.98148991 991.63893288 896.00911641 988.421875 893.046875 C985.64505943 890.49444857 982.85019283 887.97016712 980 885.5 C976.12182987 882.13677362 972.34472189 878.66664329 968.56689453 875.19189453 C963.74415109 870.75776372 958.8765888 866.3748176 954 862 C952.33307353 860.50028872 950.66640851 859.00028679 949 857.5 C948.175 856.7575 947.35 856.015 946.5 855.25 C919 830.5 919 830.5 916.4921875 828.2421875 C914.85260121 826.76707382 913.21200345 825.29308348 911.5703125 823.8203125 C906.9796939 819.69902232 902.41552893 815.55126212 897.875 811.375 C894.00632178 807.81746901 890.09665875 804.31710425 886.125 800.875 C882.84568857 797.98148991 879.63893288 795.00911641 876.421875 792.046875 C873.64505943 789.49444857 870.85019283 786.97016712 868 784.5 C864.12182987 781.13677362 860.34472189 777.66664329 856.56689453 774.19189453 C851.74415109 769.75776372 846.8765888 765.3748176 842 761 C840.33307353 759.50028872 838.66640851 758.00028679 837 756.5 C836.175 755.7575 835.35 755.015 834.5 754.25 C817 738.5 817 738.5 814.4921875 736.2421875 C812.85260121 734.76707382 811.21200345 733.29308348 809.5703125 731.8203125 C804.9796939 727.69902232 800.41552893 723.55126212 795.875 719.375 C792.00632178 715.81746901 788.09665875 712.31710425 784.125 708.875 C780.84568857 705.98148991 777.63893288 703.00911641 774.421875 700.046875 C771.64505943 697.49444857 768.85019283 694.97016712 766 692.5 C762.06832786 689.09255081 758.24638756 685.56870327 754.41967773 682.04467773 C751.66526572 679.51259884 748.89257501 677.00964732 746.0625 674.5625 C741.87967989 670.93855356 737.83728193 667.16744254 733.77978516 663.40478516 C730.26787256 660.15384488 726.70998582 656.97015687 723.08984375 653.83984375 C720.35629441 651.43329844 717.67885994 648.96696804 715 646.5 C711.69973124 643.46109823 708.39050653 640.438439 705 637.5 C701.12182987 634.13677362 697.34472189 630.66664329 693.56689453 627.19189453 C688.74415109 622.75776372 683.8765888 618.3748176 679 614 C677.33307353 612.50028872 675.66640851 611.00028679 674 609.5 C673.175 608.7575 672.35 608.015 671.5 607.25 C654 591.5 654 591.5 651.4921875 589.2421875 C649.85260121 587.76707382 648.21200345 586.29308348 646.5703125 584.8203125 C641.9796939 580.69902232 637.41552893 576.55126212 632.875 572.375 C629.00632178 568.81746901 625.09665875 565.31710425 621.125 561.875 C617.84568857 558.98148991 614.63893288 556.00911641 611.421875 553.046875 C608.64505943 550.49444857 605.85019283 547.97016712 603 545.5 C599.06832786 542.09255081 595.24638756 538.56870327 591.41967773 535.04467773 C588.66526572 532.51259884 585.89257501 530.00964732 583.0625 527.5625 C578.87967989 523.93855356 574.83728193 520.16744254 570.77978516 516.40478516 C567.26787256 513.15384488 563.70998582 509.97015687 560.08984375 506.83984375 C557.35629441 504.43329844 554.67885994 501.96696804 552 499.5 C548.69973124 496.46109823 545.39050653 493.438439 542 490.5 C538.12182987 487.13677362 534.34472189 483.66664329 530.56689453 480.19189453 C525.74415109 475.75776372 520.8765888 471.3748176 516 467 C514.33307353 465.50028872 512.66640851 464.00028679 511 462.5 C509.7625 461.38625 509.7625 461.38625 508.5 460.25 C491 444.5 491 444.5 488.4921875 442.2421875 C486.85260121 440.76707382 485.21200345 439.29308348 483.5703125 437.8203125 C478.9796939 433.69902232 474.41552893 429.55126212 469.875 425.375 C466.00632178 421.81746901 462.09665875 418.31710425 458.125 414.875 C454.84568857 411.98148991 451.63893288 409.00911641 448.421875 406.046875 C445.64505943 403.49444857 442.85019283 400.97016712 440 398.5 C436.12182987 395.13677362 432.34472189 391.66664329 428.56689453 388.19189453 C423.74415109 383.75776372 418.8765888 379.3748176 414 375 C412.33307353 373.50028872 410.66640851 372.00028679 409 370.5 C407.7625 369.38625 407.7625 369.38625 406.5 368.25 C379 343.5 379 343.5 376.4921875 341.2421875 C374.85260121 339.76707382 373.21200345 338.29308348 371.5703125 336.8203125 C366.9796939 332.69902232 362.41552893 328.55126212 357.875 324.375 C354.00632178 320.81746901 350.09665875 317.31710425 346.125 313.875 C342.84568857 310.98148991 339.63893288 308.00911641 336.421875 305.046875 C333.64505943 302.49444857 330.85019283 299.97016712 328 297.5 C324.12182987 294.13677362 320.34472189 290.66664329 316.56689453 287.19189453 C311.74415109 282.75776372 306.8765888 278.3748176 302 274 C300.33307353 272.50028872 298.66640851 271.00028679 297 269.5 C295.7625 268.38625 295.7625 268.38625 294.5 267.25 C277 251.5 277 251.5 274.4921875 249.2421875 C272.85260121 247.76707382 271.21200345 246.29308348 269.5703125 244.8203125 C264.9796939 240.69902232 260.41552893 236.55126212 255.875 232.375 C252.00632178 228.81746901 248.09665875 225.31710425 244.125 221.875 C240.84568857 218.98148991 237.63893288 216.00911641 234.421875 213.046875 C231.64505943 210.49444857 228.85019283 207.97016712 226 205.5 C222.06832786 202.09255081 218.24638756 198.56870327 214.41967773 195.04467773 C211.66526572 192.51259884 208.89257501 190.00964732 206.0625 187.5625 C201.87967989 183.93855356 197.83728193 180.16744254 193.77978516 176.40478516 C190.26787256 173.15384488 186.70998582 169.97015687 183.08984375 166.83984375 C180.35629441 164.43329844 177.67885994 161.96696804 175 159.5 C171.69973124 156.46109823 168.39050653 153.438439 165 150.5 C161.12182987 147.13677362 157.34472189 143.66664329 153.56689453 140.19189453 C148.74415109 135.75776372 143.8765888 131.3748176 139 127 C137.33307353 125.50028872 135.66640851 124.00028679 134 122.5 C133.175 121.7575 132.35 121.015 131.5 120.25 C114 104.5 114 104.5 111.4921875 102.2421875 C109.85260121 100.76707382 108.21200345 99.29308348 106.5703125 97.8203125 C101.9796939 93.69902232 97.41552893 89.55126212 92.875 85.375 C89.00632178 81.81746901 85.09665875 78.31710425 81.125 74.875 C77.84568857 71.98148991 74.63893288 69.00911641 71.421875 66.046875 C68.64505943 63.49444857 65.85019283 60.97016712 63 58.5 C59.12182987 55.13677362 55.34472189 51.66664329 51.56689453 48.19189453 C46.74415109 43.75776372 41.8765888 39.3748176 37 35 C35.33307353 33.50028872 33.66640851 32.00028679 32 30.5 C30.7625 29.38625 30.7625 29.38625 29.5 28.25 C27 26 24.5 23.75 22 21.5 C20.76830078 20.39205078 20.76830078 20.39205078 19.51171875 19.26171875 C17.80444202 17.72437314 16.09876956 16.18524445 14.39453125 14.64453125 C13.54246094 13.87496094 12.69039062 13.10539063 11.8125 12.3125 C10.99652344 11.57515625 10.18054687 10.8378125 9.33984375 10.078125 C7.21859501 8.19414448 5.05891436 6.37290788 2.875 4.5625 C1.92625 3.716875 0.9775 2.87125 0 2 C0 1.34 0 0.68 0 0 Z " fill="#264B6E" transform="translate(0,0)"/>
</svg>
